# xmcd
#
# Track frame offsets:
# 150
# 32858
# 64970
# 79721
# 100343
# 114464
# 125621
# 145686
# 159368
# 174313
# 189342
# 199217
# 213701
# 229745
# 245032
# 280433
# 290672
#
# Disc length: 4580 seconds
#
#
# Revision: 0
# Processed by: cddbd v1.5PL3 Copyright (c) Steve Scherf et al.
# Submitted via: FreeRIP 2.60 
#
DISCID=0311e211
DTITLE=Doors - Doors - The Best Of The Doors
DYEAR=1900
DGENRE=Blues
TTITLE0=Riders on the Storm
TTITLE1=Light My Fire
TTITLE2=Love Me Two Times
TTITLE3=Roadhouse Blues - Live
TTITLE4=Strange Days
TTITLE5=Break On Through (to the other side)
TTITLE6=Five To One
TTITLE7=Moonlight Drive
TTITLE8=Alabama Song (Whiskey Bar)
TTITLE9=Love Her Madly
TTITLE10=People Are Strange
TTITLE11=Touch Me
TTITLE12=Back Door Man
TTITLE13=The Unknown Soldier
TTITLE14=L.A. Woman
TTITLE15=Hello I Love You
TTITLE16=The End
EXTD=
EXTT0=
EXTT1=
EXTT2=
EXTT3=
EXTT4=
EXTT5=
EXTT6=
EXTT7=
EXTT8=
EXTT9=
EXTT10=
EXTT11=
EXTT12=
EXTT13=
EXTT14=
EXTT15=
EXTT16=
PLAYORDER=
